<svg width="371" height="57" viewBox="0 0 371 57" fill="none" xmlns="http://www.w3.org/2000/svg">
<path d="M13.5625 50.8438C13.1875 54.5938 11.125 56.625 7.375 56.9375C5.625 56.9375 4.09375 56.375 2.78125 55.25C1.53125 54.0625 0.90625 52.5938 0.90625 50.8438V6.59375C0.96875 4.84375 1.625 3.40625 2.875 2.28125C4.125 1.09375 5.625 0.5 7.375 0.5H46.75C52.25 0.6875 56.4062 1.90625 59.2188 4.15625C62.0312 6.34375 64.0625 8.84375 65.3125 11.6562C66.5625 14.4688 67.1875 17.3125 67.1875 20.1875C67.1875 23.1875 66.5625 26.0938 65.3125 28.9062C64.125 31.7188 62.0938 34.25 59.2188 36.5C56.4062 38.6875 52.8125 39.75 48.4375 39.6875H24.8125C23.0625 39.6875 21.5938 39.0625 20.4062 37.8125C19.1562 36.625 18.5312 35.1562 18.5312 33.4062C18.5312 31.6562 19.125 30.1875 20.3125 29C21.5625 27.75 23.0625 27.125 24.8125 27.125H49C50.1875 27.125 51.1562 26.75 51.9062 26C52.7188 25.1875 53.3125 24.2812 53.6875 23.2812C54.0625 22.2188 54.25 21.1562 54.25 20.0938C54.25 19.0938 54.0625 18.0938 53.6875 17.0938C53.3125 16.0312 52.7188 15.125 51.9062 14.375C51.1562 13.5625 50.1875 13.125 49 13.0625H16C14.375 13.125 13.5625 13.9375 13.5625 15.5V50.8438ZM96.5312 55.8125C91.0312 55.625 86.875 54.3438 84.0625 51.9688C81.25 49.5312 79.2188 46.8125 77.9688 43.8125C76.7188 40.75 76.0938 37.6562 76.0938 34.5312C76.0938 31.2812 76.6875 28.1562 77.875 25.1562C79.125 22.0938 81.1562 19.375 83.9688 17C86.8438 14.5625 90.4688 13.3125 94.8438 13.25H125.219C129.594 13.3125 133.188 14.5625 136 17C138.875 19.375 140.906 22.0938 142.094 25.1562C143.344 28.1562 143.969 31.2812 143.969 34.5312C143.969 37.6562 143.344 40.75 142.094 43.8125C140.844 46.8125 138.812 49.5312 136 51.9688C133.188 54.3438 129.031 55.625 123.531 55.8125H96.5312ZM94.4688 25.8125C93.2812 25.8125 92.25 26.3125 91.375 27.3125C90.5 28.25 89.8438 29.375 89.4062 30.6875C89.0312 31.9375 88.8438 33.1875 88.8438 34.4375C88.8438 35.75 89.0312 37.0625 89.4062 38.375C89.8438 39.625 90.5 40.75 91.375 41.75C92.25 42.6875 93.2812 43.1875 94.4688 43.25H125.594C126.781 43.1875 127.812 42.6875 128.688 41.75C129.562 40.75 130.188 39.625 130.562 38.375C131 37.0625 131.219 35.75 131.219 34.4375C131.219 33.1875 131 31.9375 130.562 30.6875C130.188 29.375 129.562 28.25 128.688 27.3125C127.812 26.3125 126.781 25.8125 125.594 25.8125H94.4688ZM174.625 11.8438C176.812 11.8438 178.938 12.2188 181 12.9688C183.125 13.7188 185.156 14.8125 187.094 16.25C187.406 16.5625 187.75 16.875 188.125 17.1875C188.438 16.875 188.781 16.5625 189.156 16.25C191.094 14.8125 193.094 13.7188 195.156 12.9688C197.281 12.2188 199.406 11.8438 201.531 11.8438C203.719 11.8438 205.844 12.2188 207.906 12.9688C210.031 13.7188 212.031 14.8438 213.906 16.3438C215.844 17.7812 217.531 19.7188 218.969 22.1562C220.469 24.5938 221.219 27.5 221.219 30.875V50.8438C220.844 54.5938 218.781 56.625 215.031 56.9375C213.281 56.9375 211.75 56.375 210.438 55.25C209.188 54.0625 208.562 52.5938 208.562 50.8438V31.625C208.562 30.125 208.281 28.875 207.719 27.875C207.156 26.8125 206.531 26 205.844 25.4375C205.156 24.8125 204.438 24.375 203.688 24.125C202.938 23.8125 202.188 23.6562 201.438 23.6562C200.688 23.6562 199.938 23.8125 199.188 24.125C198.5 24.375 197.812 24.8125 197.125 25.4375C196.438 26 195.812 26.8125 195.25 27.875C194.688 28.875 194.375 30.125 194.312 31.625V50.8438C193.938 54.5938 191.875 56.625 188.125 56.9375C186.375 56.9375 184.844 56.375 183.531 55.25C182.281 54.0625 181.656 52.5938 181.656 50.8438V31.625C181.656 30.125 181.375 28.875 180.812 27.875C180.25 26.8125 179.625 26 178.938 25.4375C178.25 24.8125 177.531 24.375 176.781 24.125C176.031 23.8125 175.281 23.6562 174.531 23.6562C173.781 23.6562 173.031 23.8125 172.281 24.125C171.594 24.375 170.906 24.8125 170.219 25.4375C169.531 26 168.906 26.8125 168.344 27.875C167.781 28.875 167.469 30.125 167.406 31.625V50.8438C167.094 54.5938 165.062 56.625 161.312 56.9375C159.562 56.9375 158.031 56.375 156.719 55.25C155.469 54.0625 154.844 52.5938 154.844 50.8438V30.875C154.969 27.5 155.75 24.5938 157.188 22.1562C158.625 19.7188 160.312 17.7812 162.25 16.3438C164.188 14.8438 166.188 13.7188 168.25 12.9688C170.375 12.2188 172.5 11.8438 174.625 11.8438ZM252.719 11.8438C254.906 11.8438 257.031 12.2188 259.094 12.9688C261.219 13.7188 263.25 14.8125 265.188 16.25C265.5 16.5625 265.844 16.875 266.219 17.1875C266.531 16.875 266.875 16.5625 267.25 16.25C269.188 14.8125 271.188 13.7188 273.25 12.9688C275.375 12.2188 277.5 11.8438 279.625 11.8438C281.812 11.8438 283.938 12.2188 286 12.9688C288.125 13.7188 290.125 14.8438 292 16.3438C293.938 17.7812 295.625 19.7188 297.062 22.1562C298.562 24.5938 299.312 27.5 299.312 30.875V50.8438C298.938 54.5938 296.875 56.625 293.125 56.9375C291.375 56.9375 289.844 56.375 288.531 55.25C287.281 54.0625 286.656 52.5938 286.656 50.8438V31.625C286.656 30.125 286.375 28.875 285.812 27.875C285.25 26.8125 284.625 26 283.938 25.4375C283.25 24.8125 282.531 24.375 281.781 24.125C281.031 23.8125 280.281 23.6562 279.531 23.6562C278.781 23.6562 278.031 23.8125 277.281 24.125C276.594 24.375 275.906 24.8125 275.219 25.4375C274.531 26 273.906 26.8125 273.344 27.875C272.781 28.875 272.469 30.125 272.406 31.625V50.8438C272.031 54.5938 269.969 56.625 266.219 56.9375C264.469 56.9375 262.938 56.375 261.625 55.25C260.375 54.0625 259.75 52.5938 259.75 50.8438V31.625C259.75 30.125 259.469 28.875 258.906 27.875C258.344 26.8125 257.719 26 257.031 25.4375C256.344 24.8125 255.625 24.375 254.875 24.125C254.125 23.8125 253.375 23.6562 252.625 23.6562C251.875 23.6562 251.125 23.8125 250.375 24.125C249.688 24.375 249 24.8125 248.312 25.4375C247.625 26 247 26.8125 246.438 27.875C245.875 28.875 245.562 30.125 245.5 31.625V50.8438C245.188 54.5938 243.156 56.625 239.406 56.9375C237.656 56.9375 236.125 56.375 234.812 55.25C233.562 54.0625 232.938 52.5938 232.938 50.8438V30.875C233.062 27.5 233.844 24.5938 235.281 22.1562C236.719 19.7188 238.406 17.7812 240.344 16.3438C242.281 14.8438 244.281 13.7188 246.344 12.9688C248.469 12.2188 250.594 11.8438 252.719 11.8438ZM330.156 55.8125C324.656 55.625 320.5 54.3438 317.688 51.9688C314.875 49.5312 312.844 46.8125 311.594 43.8125C310.344 40.75 309.719 37.6562 309.719 34.5312C309.719 31.2812 310.312 28.1562 311.5 25.1562C312.75 22.0938 314.781 19.375 317.594 17C320.469 14.5625 324.094 13.3125 328.469 13.25H364.094C365.844 13.25 367.312 13.8438 368.5 15.0312C369.75 16.1562 370.375 17.5312 370.375 19.1562C370.375 20.8438 369.75 22.2812 368.5 23.4688C367.312 24.5938 365.844 25.1562 364.094 25.1562H329.031C327.656 25.1562 326.438 25.625 325.375 26.5625C324.375 27.5 323.625 28.7188 323.125 30.2188C322.688 31.7188 322.469 33.1875 322.469 34.625C322.469 36.1875 322.688 37.7188 323.125 39.2188C323.625 40.7188 324.375 41.9375 325.375 42.875C326.438 43.75 327.656 44.2188 329.031 44.2812H364.094C365.844 44.2812 367.312 44.8438 368.5 45.9688C369.75 47.0938 370.375 48.4375 370.375 50C370.375 51.625 369.75 53 368.5 54.125C367.312 55.25 365.844 55.8125 364.094 55.8125H330.156ZM369.25 34.3438C369.25 35.5312 368.719 36.5625 367.656 37.4375C366.719 38.25 365.531 38.6562 364.094 38.6562H333.438C332 38.6562 330.781 38.25 329.781 37.4375C328.781 36.5625 328.281 35.5312 328.281 34.3438C328.281 33.2188 328.781 32.2188 329.781 31.3438C330.781 30.5312 332 30.125 333.438 30.125H364.094C365.531 30.125 366.75 30.5625 367.75 31.4375C368.75 32.25 369.25 33.2188 369.25 34.3438Z" fill="white"/>
</svg>
