<svg width="2000" height="1400" xmlns="http://www.w3.org/2000/svg"><defs><linearGradient id="a" gradientTransform="rotate(90)"><stop offset="5%" stop-color="#22cffc"/><stop offset="95%" stop-color="#59dbfc"/></linearGradient><linearGradient id="b" gradientTransform="rotate(90)"><stop offset="5%" stop-color="#41b7f9"/><stop offset="95%" stop-color="#70c9fa"/></linearGradient><linearGradient id="c" gradientTransform="rotate(90)"><stop offset="5%" stop-color="#609ef6"/><stop offset="95%" stop-color="#87b6f8"/></linearGradient><linearGradient id="d" gradientTransform="rotate(90)"><stop offset="5%" stop-color="#7f86f3"/><stop offset="95%" stop-color="#9fa4f6"/></linearGradient><linearGradient id="e" gradientTransform="rotate(90)"><stop offset="5%" stop-color="#9ba0f6"/><stop offset="95%" stop-color="#b4b7f8"/></linearGradient><linearGradient id="f" gradientTransform="rotate(90)"><stop offset="5%" stop-color="#b7baf9"/><stop offset="95%" stop-color="#c9cbfa"/></linearGradient><linearGradient id="g" gradientTransform="rotate(90)"><stop offset="5%" stop-color="#d3d3fc"/><stop offset="95%" stop-color="#dedefc"/></linearGradient><linearGradient id="h" gradientTransform="rotate(90)"><stop offset="5%" stop-color="#efedff"/><stop offset="95%" stop-color="#f3f1ff"/></linearGradient></defs><path fill="#03e7ff" d="M0 0h2000v1400H0z"/><path d="M0 155c74.195-11.828 148.39-23.656 235-19 86.61 4.656 185.638 25.795 272 35 86.362 9.205 160.058 6.475 238 3 77.942-3.475 160.131-7.696 245-12s172.419-8.69 255-5c82.581 3.69 160.195 15.455 245 17s176.801-7.13 263-12c86.199-4.87 166.6-5.935 287-7l-40 1245H0Z" fill="url(#a)"/><path d="M0 311c81.307-.598 162.614-1.196 249-2s177.852-1.813 259-1 151.977 3.449 228 0 157.238-12.982 248-14c90.762-1.018 191.07 6.48 278 15s160.481 18.063 241 15c80.519-3.063 168.005-18.732 252-23 83.995-4.268 164.497 2.866 285 10l-40 1089H0Z" fill="url(#b)"/><path d="M0 466c82.73-7.117 165.462-14.234 245-10 79.538 4.234 155.884 19.82 241 21 85.116 1.18 179-12.044 269-11 90 1.044 176.113 16.357 253 13 76.887-3.357 144.547-25.384 228-25 83.453.384 182.699 23.18 272 31 89.301 7.82 168.657.663 249-5 80.343-5.663 161.671-9.831 283-14l-40 934H0Z" fill="url(#c)"/><path d="M0 622c79.47 9.008 158.942 18.017 242 14 83.058-4.017 169.704-21.06 253-28 83.296-6.94 163.242-3.78 244 0 80.758 3.78 162.327 8.179 247 12 84.673 3.821 172.448 7.066 258 7 85.552-.066 168.88-3.44 249-8 80.12-4.56 157.034-10.303 241-10 83.966.303 174.983 6.651 306 13l-40 778H0Z" fill="url(#d)"/><path d="M0 777c84.818 6.654 169.635 13.307 251 13 81.365-.307 159.277-7.575 240-8 80.723-.425 164.255 5.992 252 9s179.702 2.607 263-4 157.935-19.42 236-16c78.065 3.42 159.556 23.075 246 22 86.444-1.075 177.841-22.878 264-29 86.159-6.122 167.08 3.44 288 13l-40 623H0Z" fill="url(#e)"/><path d="M0 933c80.21-7.319 160.42-14.637 242-11 81.58 3.637 164.533 18.23 253 16 88.467-2.23 182.45-21.285 268-20 85.55 1.285 162.667 22.91 239 23 76.333.09 151.883-21.358 234-22 82.117-.642 170.8 19.52 260 29 89.2 9.48 178.914 8.28 263 4 84.086-4.28 162.543-11.64 281-19l-40 467H0Z" fill="url(#f)"/><path d="M0 1088c92.355 3.735 184.71 7.47 263 10 78.29 2.53 142.515 3.853 224 2 81.485-1.853 180.231-6.883 263-11s149.56-7.321 236-5c86.44 2.321 192.53 10.169 278 12 85.47 1.831 150.319-2.353 226-6 75.681-3.647 162.195-6.756 249-7 86.805-.244 173.903 2.378 301 5l-40 312H0Z" fill="url(#g)"/><path d="M0 1244c73.409-.132 146.818-.264 235 2 88.182 2.264 191.137 6.924 279 4 87.863-2.924 160.634-13.432 239-15 78.366-1.568 162.327 5.804 247 8 84.673 2.196 170.057-.782 252-1 81.943-.218 160.446 2.326 246 1s178.158-6.522 263-7c84.842-.478 161.92 3.76 279 8l-40 156H0Z" fill="url(#h)"/></svg>